<?xml version="1.0" encoding="UTF-8"?>
<svg id="Layer_1" data-name="Layer 1" xmlns="http://www.w3.org/2000/svg" viewBox="0 0 288.7 49.75">
  <defs>
    <style>
      .cls-1 {
        fill: #231f20;
      }
    </style>
  </defs>
  <g>
    <path class="cls-1" d="m20.06,27.76h-7.6c-1.6,0-2.9,1.3-2.9,2.9v6.63c0,1.6,1.3,2.9,2.9,2.9h11.43c1.6,0,2.9,1.3,2.9,2.9v2.49c0,1.6-1.3,2.9-2.9,2.9H2.9c-1.6,0-2.9-1.3-2.9-2.9V4.14C0,2.54,1.3,1.25,2.9,1.25h21c1.6,0,2.9,1.3,2.9,2.9v2.49c0,1.6-1.3,2.9-2.9,2.9h-11.43c-1.6,0-2.9,1.3-2.9,2.9v4.77c0,1.6,1.3,2.9,2.9,2.9h7.6c1.6,0,2.9,1.3,2.9,2.9v1.87c0,1.6-1.3,2.9-2.9,2.9Z"/>
    <path class="cls-1" d="m38.82,15.07h0c0,.93,1.1,1.38,1.78.75,2.18-2.05,4.77-3.08,7.78-3.08,4.07,0,7.32,1.38,9.75,4.13,2.43,2.75,3.65,6.48,3.65,11.17v17.01c0,1.89-1.53,3.43-3.43,3.43h-2.09c-1.89,0-3.43-1.53-3.43-3.43v-17.01c0-2.06-.65-3.74-1.96-5.05-1.31-1.31-2.99-1.96-5.05-1.96s-3.69.67-5.02,2.03c-1.33,1.35-1.99,3.01-1.99,4.98v17.01c0,1.89-1.53,3.43-3.43,3.43h-2.09c-1.89,0-3.43-1.53-3.43-3.43v-27.6c0-1.89,1.53-3.43,3.43-3.43h4.46c.58,0,1.05.47,1.05,1.05Z"/>
    <path class="cls-1" d="m74.42,2.46v12.76c0,1.05,1.24,1.6,2.02.91s1.68-1.31,2.68-1.83c1.99-1.04,4.12-1.56,6.39-1.56,1.97,0,3.93.44,5.87,1.32,1.94.88,3.68,2.12,5.22,3.72,3.51,3.61,5.26,8.1,5.26,13.46s-1.76,9.84-5.26,13.46c-1.54,1.6-3.28,2.84-5.22,3.72-1.94.88-3.9,1.32-5.87,1.32-2.24,0-4.38-.53-6.42-1.59-1-.52-1.88-1.12-2.65-1.79s-2.02-.14-2.02.91h0c0,.66-.54,1.2-1.2,1.2h-6.52c-.67,0-1.22-.55-1.22-1.22V2.46c0-.67.55-1.22,1.22-1.22h6.5c.67,0,1.22.55,1.22,1.22Zm9.25,18.56c-2.33,0-4.38.86-6.17,2.59-2.06,1.95-3.08,4.5-3.08,7.63s1.03,5.68,3.08,7.63c1.79,1.72,3.84,2.59,6.17,2.59s4.38-.86,6.17-2.59c2.06-1.95,3.08-4.5,3.08-7.63s-1.03-5.68-3.08-7.63c-1.79-1.72-3.84-2.59-6.17-2.59Z"/>
    <path class="cls-1" d="m107.46,1.25h2.55c1.76,0,3.19,1.43,3.19,3.19h0c0,1.76-1.43,3.19-3.19,3.19h-2.55c-1.76,0-3.19-1.43-3.19-3.19h0c0-1.76,1.43-3.19,3.19-3.19Zm-3.19,44.04v-28.07c0-1.76,1.43-3.19,3.19-3.19h2.55c1.76,0,3.19,1.43,3.19,3.19v28.07c0,1.76-1.43,3.19-3.19,3.19h-2.55c-1.76,0-3.19-1.43-3.19-3.19Z"/>
    <path class="cls-1" d="m117.57,45.57V4.15c0-1.61,1.3-2.91,2.91-2.91h3.13c1.61,0,2.91,1.3,2.91,2.91v17.08c0,2.86,3.69,4,5.31,1.64l5.2-7.59c.54-.79,1.44-1.26,2.4-1.26h3.66c2.39,0,3.76,2.72,2.34,4.64l-8.27,11.16c-.81,1.09-.75,2.59.13,3.62l8.75,10.23c1.61,1.89.27,4.8-2.21,4.8h-3.71c-.89,0-1.73-.41-2.28-1.1l-6.12-7.73c-1.71-2.16-5.19-.95-5.19,1.8v4.12c0,1.61-1.3,2.91-2.91,2.91h-3.13c-1.61,0-2.91-1.3-2.91-2.91Z"/>
    <path class="cls-1" d="m187.95,14.02c-1.14,0-2.21-.47-3.06-1.24-1.08-.97-2.35-1.79-3.82-2.45-2.06-.92-4.12-1.39-6.2-1.39-1.77,0-3.55.34-5.34,1.01-1.8.67-3.4,1.6-4.81,2.79-3.45,3.07-5.17,7.08-5.17,12.01s1.72,8.94,5.17,12.01c1.41,1.28,3.02,2.27,4.81,2.98,1.8.71,3.58,1.07,5.34,1.07,2.1,0,4.17-.47,6.22-1.4,1.46-.67,2.73-1.49,3.8-2.46.85-.77,1.92-1.24,3.07-1.24h.66c4.06,0,5.93,5,2.91,7.71-1.07.96-2.23,1.82-3.48,2.6-4.03,2.49-8.42,3.74-13.18,3.74-3.49,0-6.79-.68-9.89-2.04-3.1-1.36-5.83-3.32-8.18-5.87-2.16-2.33-3.84-4.97-5.03-7.94-1.19-2.97-1.79-5.98-1.79-9.03s.6-6.06,1.79-9.02c1.19-2.96,2.87-5.61,5.03-7.96,2.35-2.55,5.07-4.51,8.18-5.86,3.1-1.35,6.4-2.02,9.89-2.02,4.78,0,9.18,1.24,13.19,3.72,1.25.77,2.4,1.63,3.46,2.58,3.02,2.71,1.15,7.71-2.91,7.71h-.66Z"/>
    <path class="cls-1" d="m202.58,1.25h1.73c1.99,0,3.61,1.61,3.61,3.61v5.62c0,2.58,2.65,4.18,5.03,3.16,1.38-.59,2.89-.89,4.54-.89,4.05,0,7.29,1.4,9.74,4.19,2.44,2.79,3.66,6.5,3.66,11.11v16.83c0,1.99-1.61,3.61-3.61,3.61h-1.73c-1.99,0-3.61-1.61-3.61-3.61v-16.83c0-2.01-.67-3.69-1.99-5.02s-3-1.99-5.02-1.99-3.69.67-5.02,1.99-1.99,3-1.99,5.02v16.83c0,1.99-1.61,3.61-3.61,3.61h-1.73c-1.99,0-3.61-1.61-3.61-3.61V4.85c0-1.99,1.61-3.61,3.61-3.61Z"/>
    <path class="cls-1" d="m269.04,15.22v32.06c0,.66-.54,1.2-1.2,1.2h-6.55c-.66,0-1.2-.54-1.2-1.2h0c0-1.04-1.22-1.57-1.99-.88s-1.63,1.27-2.62,1.79c-2.01,1.05-4.17,1.57-6.48,1.57-1.83,0-3.7-.42-5.61-1.25-1.91-.83-3.63-1.98-5.17-3.46-3.72-3.59-5.58-8.19-5.58-13.8s1.86-10.21,5.58-13.8c1.54-1.47,3.26-2.63,5.17-3.46,1.91-.83,3.78-1.25,5.61-1.25,2.28,0,4.46.55,6.53,1.64.98.52,1.84,1.1,2.57,1.74.78.68,1.99.15,1.99-.89h0c0-.67.54-1.21,1.2-1.21h6.55c.66,0,1.2.54,1.2,1.2Zm-18.19,5.81c-2.53,0-4.71.99-6.53,2.96-1.82,1.97-2.73,4.39-2.73,7.26s.91,5.29,2.73,7.26c1.82,1.97,3.99,2.96,6.53,2.96s4.71-.99,6.53-2.96c1.82-1.97,2.73-4.39,2.73-7.26s-.91-5.29-2.73-7.26c-1.82-1.97-3.99-2.96-6.53-2.96Z"/>
    <path class="cls-1" d="m275.3,46.25v-22.34c0-1.23-1-2.23-2.23-2.23h0c-1.23,0-2.23-1-2.23-2.23v-3.21c0-1.23,1-2.23,2.23-2.23h0c1.23,0,2.23-1,2.23-2.23v-5.76c0-1.23,1-2.23,2.23-2.23h4.49c1.23,0,2.23,1,2.23,2.23v5.76c0,1.23,1,2.23,2.23,2.23h0c1.23,0,2.23,1,2.23,2.23v3.21c0,1.23-1,2.23-2.23,2.23h0c-1.23,0-2.23,1-2.23,2.23v22.34c0,1.23-1,2.23-2.23,2.23h-4.49c-1.23,0-2.23-1-2.23-2.23Z"/>
  </g>
  <path class="cls-1" d="m182.11,19c-.61,0-1.21-.22-1.66-.64-.59-.54-1.29-.99-2.1-1.36-1.11-.5-2.23-.75-3.35-.75-.96,0-1.92.18-2.89.55-.97.36-1.84.87-2.6,1.51-1.87,1.66-2.8,3.83-2.8,6.5s.93,4.84,2.8,6.5c.76.69,1.63,1.23,2.6,1.61.97.38,1.94.58,2.89.58,1.14,0,2.26-.25,3.36-.76.81-.37,1.5-.82,2.09-1.36.45-.42,1.05-.64,1.66-.64h0c2.29,0,3.42,2.87,1.68,4.36-1.26,1.08-2.75,1.94-4.48,2.57-.52.19-1.07.34-1.62.43-2.91.5-5.59.21-8.05-.87-1.68-.74-3.16-1.79-4.42-3.18-1.17-1.26-2.08-2.69-2.72-4.3-.65-1.61-.97-3.24-.97-4.89s.32-3.28.97-4.88c.65-1.6,1.55-3.04,2.72-4.31,1.27-1.38,2.74-2.44,4.42-3.17,1.68-.73,3.46-1.1,5.35-1.1,2.58,0,4.96.67,7.14,2.01.59.36,1.14.77,1.65,1.21,1.74,1.49.62,4.37-1.68,4.37h0Z"/>
  <path class="cls-1" d="m171.49,26.14v-1.28c0-.88.71-1.6,1.6-1.6h0c.88,0,1.6.71,1.6,1.6v1.28c0,.88-.71,1.6-1.6,1.6h0c-.88,0-1.6-.71-1.6-1.6Zm22.02,1.6h-14.03c-.88,0-1.6-.71-1.6-1.6v-1.28c0-.88.71-1.6,1.6-1.6h14.03c.88,0,1.6.71,1.6,1.6v1.28c0,.88-.71,1.6-1.6,1.6Z"/>
</svg>